# Blender 5.1.0
# www.blender.org
mtllib bench.mtl
o Plane
v -0.613419 1.001630 2.321490
v 0.613419 1.001630 2.321490
v -0.613419 1.001630 -2.321490
v 0.613419 1.001630 -2.321490
v -0.613419 1.326294 -2.321490
v -0.613419 1.326294 2.321490
v 0.613419 1.326294 2.321490
v 0.613419 1.326294 -2.321490
v -0.613419 1.001630 1.759772
v 0.613419 1.001630 1.759772
v -0.613419 1.326294 1.759772
v 0.613419 1.326294 1.759772
v 0.613419 1.001630 1.321163
v 0.613419 1.326294 1.321163
v -0.613419 1.001630 1.321163
v -0.613419 1.326294 1.321163
v 0.613419 1.001630 -1.321265
v 0.613419 1.326294 -1.321265
v -0.613419 1.001630 -1.321265
v -0.613419 1.326294 -1.321265
v 0.613419 1.001630 -1.685261
v 0.613419 1.326294 -1.821378
v -0.613419 1.001630 -1.685261
v -0.613419 1.326294 -1.821378
v -0.613419 0.126848 1.321163
v -0.613419 0.126848 1.759772
v 0.613419 0.126848 1.759772
v 0.613419 0.126848 1.321163
v -0.613419 0.126848 -1.685261
v -0.613419 0.126848 -1.321265
v 0.613419 0.126848 -1.321265
v 0.613419 0.126848 -1.685261
vn -0.0000 -1.0000 -0.0000
vn -0.0000 1.0000 -0.0000
vn -0.0000 -0.0000 1.0000
vn 1.0000 -0.0000 -0.0000
vn -1.0000 -0.0000 -0.0000
vn -0.0000 -0.0000 -1.0000
vt 0.000000 0.892286
vt 0.000000 1.000000
vt 1.000000 1.000000
vt 1.000000 0.892286
vt 0.000000 0.000000
vt 1.000000 0.000000
vt 0.000000 0.120982
vt 0.000000 0.215449
vt 1.000000 0.120982
vt 0.000000 0.784573
vt 1.000000 0.215449
vt 1.000000 0.215449
vt 1.000000 0.784573
s 0
usemtl Material.001
f 23/1/1 3/2/1 4/3/1 21/4/1
f 24/1/2 22/4/2 8/3/2 5/2/2
f 1/5/3 2/6/3 7/6/3 6/5/3
f 21/4/4 4/3/4 8/3/4 22/4/4
f 9/7/5 1/5/5 6/5/5 11/7/5
f 4/3/6 3/2/6 5/2/6 8/3/6
f 15/8/5 9/7/5 11/7/5 16/8/5
f 2/6/4 10/9/4 12/9/4 7/6/4
f 6/5/2 7/6/2 12/9/2 11/7/2
f 1/5/1 9/7/1 10/9/1 2/6/1
f 19/10/5 15/8/5 16/8/5 20/10/5
f 10/9/4 13/11/4 14/12/4 12/9/4
f 11/7/2 12/9/2 14/12/2 16/8/2
f 21/4/4 17/13/4 31/13/4 32/4/4
f 23/1/5 19/10/5 20/10/5 24/1/5
f 13/11/4 17/13/4 18/13/4 14/12/4
f 16/8/2 14/12/2 18/13/2 20/10/2
f 15/8/1 19/10/1 17/13/1 13/11/1
f 3/2/5 23/1/5 24/1/5 5/2/5
f 17/13/4 21/4/4 22/4/4 18/13/4
f 20/10/2 18/13/2 22/4/2 24/1/2
f 15/8/6 13/11/6 28/11/6 25/8/6
f 26/7/1 25/8/1 28/11/1 27/9/1
f 30/10/1 29/1/1 32/4/1 31/13/1
f 9/7/5 15/8/5 25/8/5 26/7/5
f 23/1/6 21/4/6 32/4/6 29/1/6
f 19/10/5 23/1/5 29/1/5 30/10/5
f 10/9/3 9/7/3 26/7/3 27/9/3
f 17/13/3 19/10/3 30/10/3 31/13/3
f 13/11/4 10/9/4 27/9/4 28/11/4
