# Blender 5.1.0
# www.blender.org
mtllib enriquezCurtain.mtl
o Curtain
v 3.785906 0.591889 -4.268266
v 5.557325 0.591889 -4.168698
v 3.785906 4.207606 -4.268266
v 5.557325 4.207606 -4.168698
v 3.904001 0.591889 -4.168698
v 4.022095 0.591889 -4.268266
v 4.140190 0.591889 -4.168698
v 4.258284 0.591889 -4.268266
v 4.376379 0.591889 -4.168698
v 4.494473 0.591889 -4.268266
v 4.612568 0.591889 -4.168698
v 4.730662 0.591889 -4.268266
v 4.848757 0.591889 -4.168698
v 4.966852 0.591889 -4.268266
v 5.084947 0.591889 -4.168698
v 5.203041 0.591889 -4.268266
v 5.321136 0.591889 -4.168698
v 5.439231 0.591889 -4.268266
v 5.439231 4.207606 -4.268266
v 5.321136 4.207606 -4.168698
v 5.203042 4.207606 -4.268266
v 5.084948 4.207606 -4.168698
v 4.966853 4.207606 -4.268266
v 4.848758 4.207606 -4.168698
v 4.730663 4.207606 -4.268266
v 4.612569 4.207606 -4.168698
v 4.494474 4.207606 -4.268266
v 4.376379 4.207606 -4.168698
v 4.258285 4.207606 -4.268266
v 4.140190 4.207606 -4.168698
v 4.022096 4.207606 -4.268266
v 3.904001 4.207606 -4.168698
vn -0.6446 -0.0000 0.7645
vn 0.6446 -0.0000 0.7645
vt 0.933333 0.000000
vt 1.000000 0.000000
vt 1.000000 1.000000
vt 0.933333 1.000000
vt 0.000000 0.000000
vt 0.066667 0.000000
vt 0.066667 1.000000
vt 0.000000 1.000000
vt 0.133333 0.000000
vt 0.133333 1.000000
vt 0.200000 0.000000
vt 0.200000 1.000000
vt 0.266667 0.000000
vt 0.266667 1.000000
vt 0.333333 0.000000
vt 0.333333 1.000000
vt 0.400000 0.000000
vt 0.400000 1.000000
vt 0.466667 0.000000
vt 0.466667 1.000000
vt 0.533333 0.000000
vt 0.533333 1.000000
vt 0.600000 0.000000
vt 0.600000 1.000000
vt 0.666667 0.000000
vt 0.666667 1.000000
vt 0.733333 0.000000
vt 0.733333 1.000000
vt 0.800000 0.000000
vt 0.800000 1.000000
vt 0.866667 0.000000
vt 0.866667 1.000000
s 0
usemtl Material.008
f 18/1/1 2/2/1 4/3/1 19/4/1
f 1/5/1 5/6/1 32/7/1 3/8/1
f 5/6/2 6/9/2 31/10/2 32/7/2
f 6/9/1 7/11/1 30/12/1 31/10/1
f 7/11/2 8/13/2 29/14/2 30/12/2
f 8/13/1 9/15/1 28/16/1 29/14/1
f 9/15/2 10/17/2 27/18/2 28/16/2
f 10/17/1 11/19/1 26/20/1 27/18/1
f 11/19/2 12/21/2 25/22/2 26/20/2
f 12/21/1 13/23/1 24/24/1 25/22/1
f 13/23/2 14/25/2 23/26/2 24/24/2
f 14/25/1 15/27/1 22/28/1 23/26/1
f 15/27/2 16/29/2 21/30/2 22/28/2
f 16/29/1 17/31/1 20/32/1 21/30/1
f 17/31/2 18/1/2 19/4/2 20/32/2
