# Blender 5.1.0
# www.blender.org
mtllib garage.mtl
o Plane
v -2.642794 0.000000 -2.746163
v -2.642794 0.000000 2.746164
v 2.642794 0.000000 -2.746164
v 2.642794 0.000000 2.746163
v -2.532288 0.130375 -2.631335
v -2.532288 0.130375 2.631336
v 2.532288 0.130375 -2.631336
v 2.532288 0.130375 2.631335
v 2.642794 0.130375 -2.746164
v -2.642794 0.130375 -2.746163
v -2.642794 0.130375 2.746164
v 2.642794 0.130375 2.746163
vn -0.0000 -1.0000 -0.0000
vn 1.0000 -0.0000 -0.0000
vn -1.0000 -0.0000 -0.0000
vn -0.0000 -0.0000 1.0000
vn -0.0000 -0.0000 -1.0000
vn -0.0000 1.0000 -0.0000
vt 0.000000 0.000000
vt 0.000000 1.000000
vt 1.000000 1.000000
vt 1.000000 0.000000
vt 0.032370 0.032370
vt 0.967630 0.032370
vt 0.967630 0.967630
vt 0.032370 0.967630
s 0
usemtl Material.001
f 1/1/1 3/2/1 4/3/1 2/4/1
f 4/3/2 3/2/2 9/2/2 12/3/2
f 1/1/3 2/4/3 11/4/3 10/1/3
f 2/4/4 4/3/4 12/3/4 11/4/4
f 3/2/5 1/1/5 10/1/5 9/2/5
usemtl Material.002
f 5/5/6 6/6/6 11/4/6 12/3/6 8/7/6 7/8/6
o Plane.001
v -2.532288 0.130375 -2.631335
v -2.532288 0.130375 2.631336
v 2.532288 0.130375 -2.631336
v 2.532288 0.130375 2.631335
v 2.642794 0.130375 -2.746164
v -2.642794 0.130375 -2.746163
v -2.642794 0.130375 2.746164
v 2.642794 0.130375 2.746163
v 2.456587 0.570841 -2.552674
v -2.456587 0.570841 -2.552674
v -2.456587 0.570841 2.552674
v 2.456587 0.570841 2.552674
v 2.642794 0.465129 -2.746164
v -2.642794 0.465129 -2.746163
v -2.642794 0.465129 2.746164
v 2.642794 0.465129 2.746163
v 2.456587 0.905596 -2.552674
v -2.456587 0.905596 -2.552674
v -2.456587 0.905596 2.552674
v 2.456587 0.905596 2.552674
v 2.642794 0.799884 -2.746164
v -2.642794 0.799884 -2.746163
v -2.642794 0.799884 2.746164
v 2.642794 0.799884 2.746163
v 2.456587 1.240351 -2.552674
v -2.456587 1.240351 -2.552674
v -2.456587 1.240351 2.552674
v 2.456587 1.240351 2.552674
v 2.642794 1.134639 -2.746164
v -2.642794 1.134639 -2.746163
v -2.642794 1.134639 2.746164
v 2.642794 1.134639 2.746163
v 2.456587 1.575105 -2.552674
v -2.456587 1.575105 -2.552674
v -2.456587 1.575105 2.552674
v 2.456587 1.575105 2.552674
v 2.642794 1.469393 -2.746164
v -2.642794 1.469393 -2.746163
v -2.642794 1.469393 2.746164
v 2.642794 1.469393 2.746163
v 2.456587 1.909860 -2.552674
v -2.456587 1.909860 -2.552674
v -2.456587 1.909860 2.552674
v 2.456587 1.909860 2.552674
v 2.642794 1.804148 -2.746164
v -2.642794 1.804148 -2.746163
v -2.642794 1.804148 2.746164
v 2.642794 1.804148 2.746163
v 2.456587 2.244615 -2.552674
v -2.456587 2.244615 -2.552674
v -2.456587 2.244615 2.552674
v 2.456587 2.244615 2.552674
v 2.642794 2.138903 -2.746164
v -2.642794 2.138903 -2.746163
v -2.642794 2.138903 2.746164
v 2.642794 2.138903 2.746163
v 2.456587 2.579369 -2.552674
v -2.456587 2.579369 -2.552674
v -2.456587 2.579369 2.552674
v 2.456587 2.579369 2.552674
v 2.642794 2.473657 -2.746164
v -2.642794 2.473657 -2.746163
v -2.642794 2.473657 2.746164
v 2.642794 2.473657 2.746163
v 2.456587 2.914124 -2.552674
v -2.456587 2.914124 -2.552674
v -2.456587 2.914124 2.552674
v 2.456587 2.914124 2.552674
v 2.642794 2.808412 -2.746164
v -2.642794 2.808412 -2.746163
v -2.642794 2.808412 2.746164
v 2.642794 2.808412 2.746163
v 2.456587 3.248879 -2.552674
v -2.456587 3.248879 -2.552674
v -2.456587 3.248879 2.552674
v 2.456587 3.248879 2.552674
v 2.642794 3.143167 -2.746164
v -2.642794 3.143167 -2.746163
v -2.642794 3.143167 2.746164
v 2.642794 3.143167 2.746163
v 2.456587 3.583633 -2.552674
v -2.456587 3.583633 -2.552674
v -2.456587 3.583633 2.552674
v 2.456587 3.583633 2.552674
v 2.642794 3.477921 -2.746164
v -2.642794 3.477921 -2.746163
v -2.642794 3.477921 2.746164
v 2.642794 3.477921 2.746163
v 2.563789 3.918388 -2.664069
v -2.563790 3.918388 -2.664069
v -2.563789 3.918388 2.664069
v 2.563790 3.918388 2.664069
v 2.456587 3.918388 -2.552674
v -2.456587 3.918388 -2.552674
v -2.456587 3.918388 2.552674
v 2.456587 3.918388 2.552674
v -2.582751 0.465129 -2.683772
v -2.582751 0.465129 -2.683772
v 2.582750 0.465129 -2.683772
v 2.582750 0.465129 -2.683772
v -2.014994 0.130375 2.746164
v 2.582751 0.465129 2.683772
v 2.582751 0.465129 2.683772
v 2.011060 0.130375 2.746163
v 2.011060 0.465129 2.683772
v -2.582750 0.465129 2.683772
v -2.582750 0.465129 2.683772
v 2.011060 0.570841 2.664069
v -2.014994 0.570841 2.664069
v -2.014994 0.465129 2.683772
v -2.014994 0.130375 2.631336
v 2.011060 0.130375 2.631335
v -2.014994 0.570841 2.552674
v 2.011060 0.570841 2.552674
v -2.514120 0.570841 -2.612457
v -2.514120 0.570841 -2.612457
v -2.514120 0.570841 2.612457
v -2.514120 0.570841 2.612457
v -2.582751 0.799884 -2.683772
v -2.582751 0.799884 -2.683772
v 2.582750 0.799884 -2.683772
v 2.582750 0.799884 -2.683772
v 2.514120 0.570841 2.612457
v 2.514120 0.570841 2.612457
v 2.514120 0.570841 -2.612457
v 2.514120 0.570841 -2.612457
v 2.011060 0.465129 2.746163
v -2.014994 0.465129 2.746164
v 2.582751 0.799884 2.683772
v 2.582751 0.799884 2.683772
v 2.011060 0.799884 2.683772
v -2.582750 0.799884 2.683772
v -2.582750 0.799884 2.683772
v 2.011060 0.905596 2.664069
v -2.014994 0.905596 2.664069
v -2.014994 0.799884 2.683772
v -2.014994 0.465129 2.631336
v -2.014994 0.570841 2.612457
v 2.011060 0.465129 2.631335
v -2.014994 0.905596 2.552674
v 2.011060 0.570841 2.612457
v 2.011060 0.905596 2.552674
v -2.514120 0.905596 -2.612457
v -2.514120 0.905596 -2.612457
v -2.514120 0.905596 2.612457
v -2.514120 0.905596 2.612457
v -2.582751 1.134639 -2.683772
v -2.582751 1.134639 -2.683772
v 2.582750 1.134639 -2.683772
v 2.582750 1.134639 -2.683772
v 2.514120 0.905596 2.612457
v 2.514120 0.905596 2.612457
v 2.514120 0.905596 -2.612457
v 2.514120 0.905596 -2.612457
v 2.011060 0.799884 2.746163
v -2.014994 0.799884 2.746164
v 2.582751 1.134639 2.683772
v 2.582751 1.134639 2.683772
v 2.011060 1.134639 2.683772
v -2.582750 1.134639 2.683772
v -2.582750 1.134639 2.683772
v 2.011060 1.240351 2.664069
v -2.014994 1.240351 2.664069
v -2.014994 1.134639 2.683772
v -2.014994 0.799884 2.631336
v -2.014994 0.905596 2.612457
v 2.011060 0.799884 2.631335
v -2.014994 1.240351 2.552674
v 2.011060 0.905596 2.612457
v 2.011060 1.240351 2.552674
v -2.514120 1.240351 -2.612457
v -2.514120 1.240351 -2.612457
v -2.514120 1.240351 2.612457
v -2.514120 1.240351 2.612457
v -2.582751 1.469393 -2.683772
v -2.582751 1.469393 -2.683772
v 2.582750 1.469393 -2.683772
v 2.582750 1.469393 -2.683772
v 2.514120 1.240351 2.612457
v 2.514120 1.240351 2.612457
v 2.514120 1.240351 -2.612457
v 2.514120 1.240351 -2.612457
v 2.011060 1.134639 2.746163
v -2.014994 1.134639 2.746164
v 2.582751 1.469393 2.683772
v 2.582751 1.469393 2.683772
v 2.011060 1.469393 2.683772
v -2.582750 1.469393 2.683772
v -2.582750 1.469393 2.683772
v 2.011060 1.575105 2.664069
v -2.014994 1.575105 2.664069
v -2.014994 1.469393 2.683772
v -2.014994 1.134639 2.631336
v -2.014994 1.240351 2.612457
v 2.011060 1.134639 2.631335
v -2.014994 1.575105 2.552674
v 2.011060 1.240351 2.612457
v 2.011060 1.575105 2.552674
v -2.514120 1.575105 -2.612457
v -2.514120 1.575105 -2.612457
v -2.514120 1.575105 2.612457
v -2.514120 1.575105 2.612457
v -2.582751 1.804148 -2.683772
v -2.582751 1.804148 -2.683772
v 2.582750 1.804148 -2.683772
v 2.582750 1.804148 -2.683772
v 2.514120 1.575105 2.612457
v 2.514120 1.575105 2.612457
v 2.514120 1.575105 -2.612457
v 2.514120 1.575105 -2.612457
v 2.011060 1.469393 2.746163
v -2.014994 1.469393 2.746164
v 2.582751 1.804148 2.683772
v 2.582751 1.804148 2.683772
v 2.011060 1.804148 2.683772
v -2.582750 1.804148 2.683772
v -2.582750 1.804148 2.683772
v 2.011060 1.909860 2.664069
v -2.014994 1.909860 2.664069
v -2.014994 1.804148 2.683772
v -2.014994 1.469393 2.631336
v 2.011060 1.469393 2.631335
v -2.014994 1.575105 2.612457
v -2.014994 1.909860 2.552674
v 2.011060 1.909860 2.552674
v 2.011060 1.575105 2.612457
v -2.514120 1.909860 -2.612457
v -2.514120 1.909860 -2.612457
v -2.514120 1.909860 2.612457
v -2.514120 1.909860 2.612457
v -2.582751 2.138903 -2.683772
v -2.582751 2.138903 -2.683772
v 2.582750 2.138903 -2.683772
v 2.582750 2.138903 -2.683772
v 2.514120 1.909860 2.612457
v 2.514120 1.909860 2.612457
v 2.514120 1.909860 -2.612457
v 2.514120 1.909860 -2.612457
v 2.011060 1.804148 2.746163
v -2.014994 1.804148 2.746164
v 2.582751 2.138903 2.683772
v 2.582751 2.138903 2.683772
v 2.011060 2.138903 2.683772
v -2.582750 2.138903 2.683772
v -2.582750 2.138903 2.683772
v 2.011060 2.244615 2.664069
v -2.014994 2.244615 2.664069
v -2.014994 2.138903 2.683772
v -2.014994 1.804148 2.631336
v -2.014994 1.909860 2.612457
v 2.011060 1.804148 2.631335
v -2.014994 2.244615 2.552674
v 2.011060 1.909860 2.612457
v 2.011060 2.244615 2.552674
v -2.514120 2.244615 -2.612457
v -2.514120 2.244615 -2.612457
v -2.514120 2.244615 2.612457
v -2.514120 2.244615 2.612457
v -2.582751 2.473657 -2.683772
v -2.582751 2.473657 -2.683772
v 2.582750 2.473657 -2.683772
v 2.582750 2.473657 -2.683772
v 2.514120 2.244615 2.612457
v 2.514120 2.244615 2.612457
v 2.514120 2.244615 -2.612457
v 2.514120 2.244615 -2.612457
v 2.011060 2.138903 2.746163
v -2.014994 2.138903 2.746164
v 2.582751 2.473657 2.683772
v 2.582751 2.473657 2.683772
v 2.011060 2.473657 2.683772
v -2.582750 2.473657 2.683772
v -2.582750 2.473657 2.683772
v 2.011060 2.579369 2.664069
v -2.014994 2.579369 2.664069
v -2.014994 2.473657 2.683772
v -2.014994 2.138903 2.631336
v -2.014994 2.244615 2.612457
v 2.011060 2.138903 2.631335
v -2.014994 2.579369 2.552674
v 2.011060 2.244615 2.612457
v 2.011060 2.579369 2.552674
v -2.514120 2.579369 -2.612457
v -2.514120 2.579369 -2.612457
v -2.514120 2.579369 2.612457
v -2.514120 2.579369 2.612457
v -2.582751 2.808412 -2.683772
v -2.582751 2.808412 -2.683772
v 2.582750 2.808412 -2.683772
v 2.582750 2.808412 -2.683772
v 2.514120 2.579369 2.612457
v 2.514120 2.579369 2.612457
v 2.514120 2.579369 -2.612457
v 2.514120 2.579369 -2.612457
v 2.011060 2.473657 2.746163
v -2.014994 2.473657 2.746164
v 2.582751 2.808412 2.683772
v 2.582751 2.808412 2.683772
v 2.011060 2.808412 2.683772
v -2.582750 2.808412 2.683772
v -2.582750 2.808412 2.683772
v 2.011060 2.914124 2.664069
v -2.014994 2.914124 2.664069
v -2.014994 2.808412 2.683772
v -2.014994 2.473657 2.631336
v -2.014994 2.579369 2.612457
v 2.011060 2.473657 2.631335
v -2.014994 2.914124 2.552674
v 2.011060 2.579369 2.612457
v 2.011060 2.914124 2.552674
v -2.514120 2.914124 -2.612457
v -2.514120 2.914124 -2.612457
v -2.514120 2.914124 2.612457
v -2.514120 2.914124 2.612457
v -2.582751 3.143167 -2.683772
v -2.582751 3.143167 -2.683772
v 2.582750 3.143167 -2.683772
v 2.582750 3.143167 -2.683772
v 2.514120 2.914124 2.612457
v 2.514120 2.914124 2.612457
v 2.514120 2.914124 -2.612457
v 2.514120 2.914124 -2.612457
v -2.014994 2.808412 2.746164
v 2.582751 3.143167 2.683772
v 2.582751 3.143167 2.683772
v 2.011060 2.808412 2.746163
v 2.011060 3.136956 2.684929
v -2.582750 3.143167 2.683772
v -2.582750 3.143167 2.683772
v -2.014994 3.136956 2.684929
v -2.014994 2.808412 2.631336
v -2.014994 2.914124 2.612457
v -2.014994 3.136956 2.572662
v 2.011060 2.808412 2.631335
v 2.011060 3.136956 2.572661
v 2.011060 2.914124 2.612457
v -2.514120 3.248879 -2.612457
v -2.514120 3.248879 -2.612457
v -2.514120 3.248879 2.612457
v -2.514120 3.248879 2.612457
v -2.582751 3.477921 -2.683772
v -2.582751 3.477921 -2.683772
v 2.582750 3.477921 -2.683772
v 2.582750 3.477921 -2.683772
v 2.514120 3.248879 2.612457
v 2.514120 3.248879 2.612457
v 2.514120 3.248879 -2.612457
v 2.514120 3.248879 -2.612457
v 2.582751 3.477921 2.683772
v 2.582751 3.477921 2.683772
v -2.582750 3.477921 2.683772
v -2.582750 3.477921 2.683772
v -2.514120 3.583633 -2.612457
v -2.514120 3.583633 -2.612457
v -2.514120 3.583633 2.612457
v -2.514120 3.583633 2.612457
v 2.514120 3.583633 2.612457
v 2.514120 3.583633 2.612457
v 2.514120 3.583633 -2.612457
v 2.514120 3.583633 -2.612457
vn 0.9856 -0.1694 -0.0000
vn -0.0000 0.1832 -0.9831
vn -0.9856 -0.1694 -0.0000
vn -0.0000 0.1832 0.9831
vn -0.0000 1.0000 -0.0000
vn 0.9843 0.1765 -0.0000
vn -0.9843 0.1765 -0.0000
vn -0.0000 -0.1758 -0.9844
vn -0.0000 -0.1758 0.9844
vn -0.0000 -1.0000 -0.0000
vn -1.0000 -0.0000 -0.0000
vn 1.0000 -0.0000 -0.0000
vn -0.0000 -0.9993 0.0369
vt 0.967630 0.032370
vt 0.032370 0.032370
vt 0.000000 1.000000
vt 0.000000 0.000000
vt 0.032370 0.967630
vt 0.967630 0.967630
vt 0.375000 0.399716
vt 1.000000 1.000000
vt 0.402835 0.393616
vt 0.014998 0.014998
vt 0.014998 0.985002
vt 0.985002 0.014998
vt 0.967630 0.116430
vt 0.985002 0.014998
vt 0.985002 0.111383
vt 0.985002 0.985002
vt 0.967630 0.882821
vt 0.985002 0.887858
vt 1.000000 0.000000
vt 0.375000 0.861511
vt 0.967630 0.032370
vt 0.032370 0.967630
vt 1.000000 0.880480
vt 1.000000 0.889411
vt 1.000000 0.118776
vt 1.000000 0.109827
vt 0.967630 0.125178
vt 0.967630 0.874091
vt 0.017588 0.017588
vt 0.017588 0.982412
vt 0.982412 0.017588
vt 0.982412 0.017588
vt 0.982412 0.982412
vt 0.982412 0.123732
vt 0.982412 0.875534
vt 1.000000 0.109827
vt 0.967630 0.125178
vt 0.967630 0.874091
vt 1.000000 0.889411
vt 0.967630 0.874091
vt 1.000000 0.109827
vt 1.000000 0.889411
vt 0.967630 0.125178
vt 0.967630 0.874091
vt 0.967630 0.125178
vt 0.967630 0.874091
vt 0.597681 0.850284
vt 0.625000 0.856271
vt 0.967630 0.119321
vt 0.967630 0.874091
vt 0.967630 0.879936
vt 0.625000 0.393729
vt 0.522966 0.380798
vt 0.495131 0.386643
vt 0.495131 0.391689
vt 0.486341 0.393616
vt 0.486341 0.399716
vt 0.514176 0.393616
vt 0.514176 0.388489
vt 0.522966 0.386643
vt 0.550801 0.380798
vt 0.522966 0.391689
vt 0.514176 0.399716
vt 0.542011 0.393616
vt 0.542011 0.388489
vt 0.550801 0.386643
vt 0.578636 0.380798
vt 0.550801 0.391689
vt 0.542011 0.399716
vt 0.569846 0.393616
vt 0.569846 0.388489
vt 0.578636 0.386643
vt 0.606471 0.386643
vt 0.606471 0.380798
vt 0.578636 0.391689
vt 0.569846 0.399716
vt 0.597681 0.393616
vt 0.597681 0.388489
vt 0.606471 0.391689
vt 0.597681 0.399716
vt 0.625000 0.382752
vt 0.411625 0.380798
vt 0.375000 0.388489
vt 0.402835 0.388489
vt 0.411625 0.386643
vt 0.439460 0.380798
vt 0.411625 0.391689
vt 0.402835 0.399716
vt 0.430670 0.393616
vt 0.430670 0.388489
vt 0.439460 0.386643
vt 0.467296 0.380798
vt 0.439460 0.391689
vt 0.430670 0.399716
vt 0.458505 0.393616
vt 0.458505 0.388489
vt 0.467296 0.386643
vt 0.495131 0.380798
vt 0.467296 0.391689
vt 0.458505 0.399716
vt 0.486341 0.388489
vt 0.486341 0.856384
vt 0.458505 0.850284
vt 0.458505 0.856384
vt 0.467296 0.858311
vt 0.467296 0.863357
vt 0.495131 0.869202
vt 0.495131 0.863357
vt 0.486341 0.861511
vt 0.522966 0.858311
vt 0.514176 0.856384
vt 0.514176 0.861511
vt 0.522966 0.863357
vt 0.550801 0.858311
vt 0.542011 0.856384
vt 0.542011 0.861511
vt 0.550801 0.863357
vt 0.578636 0.858311
vt 0.569846 0.856384
vt 0.569846 0.861511
vt 0.578636 0.863357
vt 0.597681 0.861511
vt 0.606471 0.863357
vt 0.606471 0.858311
vt 0.597681 0.856384
vt 0.486341 0.850284
vt 0.495131 0.858311
vt 0.522966 0.869202
vt 0.514176 0.850284
vt 0.550801 0.869202
vt 0.542011 0.850284
vt 0.578636 0.869202
vt 0.569846 0.850284
vt 0.606471 0.869202
vt 0.625000 0.867248
vt 0.439460 0.858311
vt 0.430670 0.856384
vt 0.430670 0.861511
vt 0.439460 0.863357
vt 0.402835 0.861511
vt 0.411625 0.863357
vt 0.411625 0.858311
vt 0.402835 0.856384
vt 0.458505 0.861511
vt 0.439460 0.869202
vt 0.402835 0.850284
vt 0.467296 0.869202
vt 0.430670 0.850284
vt 0.375000 0.850284
vt 0.411625 0.869202
s 0
usemtl Material.001
f 14/9/7 13/10/7 22/10/7 23/9/7
f 17/11/8 18/12/8 109/12/8 110/12/8 112/11/8 111/11/8
f 15/13/9 16/14/9 24/14/9 21/13/9
f 116/15/10 20/16/10 114/16/10 117/17/10
f 127/18/11 128/18/11 22/10/11 21/13/11 138/19/11 137/19/11
f 23/9/11 22/10/11 128/18/11 130/20/11
f 125/21/11 23/9/11 130/20/11 129/22/11 150/23/11
f 136/24/11 24/14/11 126/25/11 153/26/11 135/24/11
f 21/13/11 24/14/11 136/24/11 138/19/11
f 20/16/12 17/11/12 111/11/12 114/16/12
f 109/12/13 18/12/13 19/27/13 119/27/13
f 23/9/14 125/21/14 123/28/14 14/9/14
f 13/10/15 15/13/15 21/13/15 22/10/15
f 18/12/16 17/11/16 15/13/16 13/10/16
f 19/27/16 18/12/16 13/10/16 14/9/16
f 17/11/16 20/16/16 16/14/16 15/13/16
f 127/10/7 30/10/7 31/9/7 129/29/7 130/9/7 128/10/7
f 25/11/8 26/12/8 131/12/8 132/12/8 134/11/8 133/11/8
f 32/14/9 29/13/9 137/30/9 138/13/9 136/14/9 135/14/9
f 139/31/10 28/16/10 141/16/10 142/16/10 143/32/10
f 145/27/10 27/27/10 140/33/10 148/34/10 144/27/10
f 155/18/11 156/18/11 30/10/11 29/13/11 166/19/11 165/19/11
f 31/9/11 30/10/11 156/18/11 158/20/11
f 152/21/11 31/9/11 158/20/11 157/22/11 178/23/11
f 164/24/11 32/14/11 154/25/11 181/26/11 163/24/11
f 29/13/11 32/14/11 164/24/11 166/19/11
f 28/16/12 25/11/12 133/11/12 141/16/12
f 131/12/13 26/12/13 27/27/13 145/27/13
f 150/35/14 129/29/14 31/9/14 152/21/14
f 135/14/14 153/36/14 154/25/14 32/14/14
f 137/30/15 29/13/15 30/10/15 127/10/15
f 110/37/16 26/12/16 25/11/16 112/38/16
f 118/39/16 27/27/16 26/12/16 110/37/16 109/37/16 119/40/16
f 25/11/16 28/16/16 115/41/16 114/41/16 111/38/16 112/38/16
f 27/27/16 118/39/16 122/42/16 140/33/16
f 117/43/16 115/41/16 28/16/16 139/31/16
f 155/10/7 38/10/7 39/9/7 157/9/7 158/9/7 156/10/7
f 33/11/8 34/12/8 159/12/8 160/12/8 162/11/8 161/11/8
f 40/14/9 37/13/9 165/13/9 166/13/9 164/14/9 163/14/9
f 167/31/10 36/16/10 169/16/10 170/16/10 171/32/10
f 173/27/10 35/27/10 168/33/10 176/44/10 172/27/10
f 183/18/11 184/18/11 38/10/11 37/13/11 194/19/11 193/19/11
f 39/9/11 38/10/11 184/18/11 186/20/11
f 180/21/11 39/9/11 186/20/11 185/22/11 206/23/11
f 192/24/11 40/14/11 182/25/11 209/26/11 191/24/11
f 37/13/11 40/14/11 192/24/11 194/19/11
f 36/16/12 33/11/12 161/11/12 169/16/12
f 159/12/13 34/12/13 35/27/13 173/27/13
f 178/45/14 157/9/14 39/9/14 180/21/14
f 163/14/14 181/46/14 182/25/14 40/14/14
f 165/13/15 37/13/15 38/10/15 155/10/15
f 132/37/16 34/12/16 33/11/16 134/38/16
f 144/39/16 35/27/16 34/12/16 132/37/16 131/37/16 145/40/16
f 33/11/16 36/16/16 142/41/16 141/41/16 133/38/16 134/38/16
f 35/27/16 144/39/16 148/42/16 168/33/16
f 143/43/16 142/41/16 36/16/16 167/31/16
f 183/10/7 46/10/7 47/9/7 185/9/7 186/9/7 184/10/7
f 41/11/8 42/12/8 187/12/8 188/12/8 190/11/8 189/11/8
f 48/14/9 45/13/9 193/13/9 194/13/9 192/14/9 191/14/9
f 195/31/10 44/16/10 197/16/10 198/16/10 199/47/10
f 200/27/10 43/27/10 196/33/10 204/44/10 201/27/10
f 211/18/11 212/18/11 46/10/11 45/13/11 222/19/11 221/19/11
f 47/9/11 46/10/11 212/18/11 214/20/11
f 213/22/11 235/23/11 208/21/11 47/9/11 214/20/11
f 220/24/11 48/14/11 210/25/11 238/26/11 219/24/11
f 45/13/11 48/14/11 220/24/11 222/19/11
f 44/16/12 41/11/12 189/11/12 197/16/12
f 187/12/13 42/12/13 43/27/13 200/27/13
f 206/45/14 185/9/14 47/9/14 208/21/14
f 191/14/14 209/48/14 210/25/14 48/14/14
f 193/13/15 45/13/15 46/10/15 183/10/15
f 160/37/16 42/12/16 41/11/16 162/38/16
f 172/39/16 43/27/16 42/12/16 160/37/16 159/37/16 173/40/16
f 41/11/16 44/16/16 170/41/16 169/41/16 161/38/16 162/38/16
f 43/27/16 172/39/16 176/42/16 196/33/16
f 171/43/16 170/41/16 44/16/16 195/31/16
f 211/10/7 54/10/7 55/9/7 213/9/7 214/9/7 212/10/7
f 49/11/8 50/12/8 215/12/8 216/12/8 218/11/8 217/11/8
f 56/14/9 53/13/9 221/13/9 222/13/9 220/14/9 219/14/9
f 223/31/10 52/16/10 225/16/10 226/16/10 227/47/10
f 229/27/10 51/27/10 224/33/10 232/49/10 228/27/10
f 239/18/11 240/18/11 54/10/11 53/13/11 250/19/11 249/19/11
f 55/9/11 54/10/11 240/18/11 242/20/11
f 241/22/11 262/23/11 236/21/11 55/9/11 242/20/11
f 248/24/11 56/14/11 237/25/11 265/26/11 247/24/11
f 53/13/11 56/14/11 248/24/11 250/19/11
f 52/16/12 49/11/12 217/11/12 225/16/12
f 215/12/13 50/12/13 51/27/13 229/27/13
f 235/45/14 213/9/14 55/9/14 236/21/14
f 237/25/14 56/14/14 219/14/14 238/46/14
f 221/13/15 53/13/15 54/10/15 211/10/15
f 188/37/16 50/12/16 49/11/16 190/38/16
f 201/39/16 51/27/16 50/12/16 188/37/16 187/37/16 200/40/16
f 49/11/16 52/16/16 198/41/16 197/41/16 189/38/16 190/38/16
f 51/27/16 201/39/16 204/42/16 224/33/16
f 199/43/16 198/41/16 52/16/16 223/31/16
f 239/10/7 62/10/7 63/9/7 241/9/7 242/9/7 240/10/7
f 57/11/8 58/12/8 243/12/8 244/12/8 246/11/8 245/11/8
f 64/14/9 61/13/9 249/13/9 250/13/9 248/14/9 247/14/9
f 60/16/10 253/16/10 254/16/10 255/50/10 251/31/10
f 257/27/10 59/27/10 252/33/10 260/44/10 256/27/10
f 267/18/11 268/18/11 62/10/11 61/13/11 278/19/11 277/19/11
f 63/9/11 62/10/11 268/18/11 270/20/11
f 269/22/11 290/23/11 264/21/11 63/9/11 270/20/11
f 276/24/11 64/14/11 266/25/11 293/26/11 275/24/11
f 61/13/11 64/14/11 276/24/11 278/19/11
f 60/16/12 57/11/12 245/11/12 253/16/12
f 243/12/13 58/12/13 59/27/13 257/27/13
f 262/45/14 241/9/14 63/9/14 264/21/14
f 247/14/14 265/46/14 266/25/14 64/14/14
f 249/13/15 61/13/15 62/10/15 239/10/15
f 216/37/16 58/12/16 57/11/16 218/38/16
f 228/39/16 59/27/16 58/12/16 216/37/16 215/37/16 229/40/16
f 57/11/16 60/16/16 226/41/16 225/41/16 217/38/16 218/38/16
f 59/27/16 228/39/16 232/42/16 252/33/16
f 227/43/16 226/41/16 60/16/16 251/31/16
f 267/10/7 70/10/7 71/9/7 269/9/7 270/9/7 268/10/7
f 65/11/8 66/12/8 271/12/8 272/12/8 274/11/8 273/11/8
f 72/14/9 69/13/9 277/13/9 278/13/9 276/14/9 275/14/9
f 279/31/10 68/16/10 281/16/10 282/16/10 283/47/10
f 285/27/10 67/27/10 280/33/10 288/34/10 284/27/10
f 295/18/11 296/18/11 70/10/11 69/13/11 306/19/11 305/19/11
f 71/9/11 70/10/11 296/18/11 298/20/11
f 297/22/11 318/23/11 292/21/11 71/9/11 298/20/11
f 304/24/11 72/14/11 294/25/11 321/26/11 303/24/11
f 69/13/11 72/14/11 304/24/11 306/19/11
f 68/16/12 65/11/12 273/11/12 281/16/12
f 271/12/13 66/12/13 67/27/13 285/27/13
f 290/51/14 269/9/14 71/9/14 292/21/14
f 275/14/14 293/52/14 294/25/14 72/14/14
f 277/13/15 69/13/15 70/10/15 267/10/15
f 244/37/16 66/12/16 65/11/16 246/38/16
f 256/39/16 67/27/16 66/12/16 244/37/16 243/37/16 257/40/16
f 65/11/16 68/16/16 254/41/16 253/41/16 245/38/16 246/38/16
f 67/27/16 256/39/16 260/42/16 280/33/16
f 254/41/16 68/16/16 279/31/16 255/43/16
f 295/10/7 78/10/7 79/9/7 297/9/7 298/9/7 296/10/7
f 73/11/8 74/12/8 299/12/8 300/12/8 302/11/8 301/11/8
f 80/14/9 77/13/9 305/13/9 306/13/9 304/14/9 303/14/9
f 307/31/10 76/16/10 309/16/10 310/16/10 311/32/10
f 313/27/10 75/27/10 308/33/10 316/44/10 312/27/10
f 323/18/11 324/18/11 78/10/11 77/13/11 334/19/11 333/19/11
f 79/9/11 78/10/11 324/18/11 326/20/11
f 325/22/11 344/23/11 320/21/11 79/9/11 326/20/11
f 332/24/11 80/14/11 322/25/11 348/26/11 331/24/11
f 77/13/11 80/14/11 332/24/11 334/19/11
f 76/16/12 73/11/12 301/11/12 309/16/12
f 299/12/13 74/12/13 75/27/13 313/27/13
f 318/53/14 297/9/14 79/9/14 320/21/14
f 303/14/14 321/54/14 322/25/14 80/14/14
f 305/13/15 77/13/15 78/10/15 295/10/15
f 272/37/16 74/12/16 73/11/16 274/38/16
f 284/39/16 75/27/16 74/12/16 272/37/16 271/37/16 285/40/16
f 73/11/16 76/16/16 282/41/16 281/41/16 273/38/16 274/38/16
f 75/27/16 284/39/16 288/42/16 308/33/16
f 282/41/16 76/16/16 307/31/16 283/43/16
f 323/10/7 86/10/7 87/9/7 325/9/7 326/9/7 324/10/7
f 81/11/8 82/12/8 327/12/8 328/12/8 330/11/8 329/11/8
f 88/14/9 85/13/9 333/13/9 334/13/9 332/14/9 331/14/9
f 341/27/10 83/27/10 335/55/10 342/56/10
f 350/18/11 86/10/11 85/13/11 360/19/11 359/19/11 349/18/11
f 87/9/11 86/10/11 350/18/11 352/20/11
f 358/24/11 88/14/11 87/9/11 352/20/11 351/22/11 357/24/11
f 85/13/11 88/14/11 358/24/11 360/19/11
f 84/16/12 81/11/12 329/11/12 336/16/12
f 327/12/13 82/12/13 83/27/13 341/27/13
f 345/57/14 344/35/14 325/9/14 87/9/14 88/14/14 331/14/14 348/58/14 347/59/14
f 333/13/15 85/13/15 86/10/15 323/10/15
f 300/37/16 82/12/16 81/11/16 302/38/16
f 312/39/16 83/27/16 82/12/16 300/37/16 299/37/16 313/40/16
f 81/11/16 84/16/16 310/41/16 309/41/16 301/38/16 302/38/16
f 83/27/16 312/39/16 316/42/16 335/33/16
f 310/41/16 84/16/16 338/31/16 311/43/16
f 349/10/7 94/10/7 95/9/7 351/9/7 352/9/7 350/10/7
f 89/11/8 90/12/8 353/12/8 354/12/8 356/11/8 355/11/8
f 96/14/9 93/13/9 359/13/9 360/13/9 358/14/9 357/14/9
f 363/27/10 91/27/10 92/16/10 361/16/10 362/16/10 364/27/10
f 366/18/11 94/10/11 93/13/11 372/19/11 371/19/11 365/18/11
f 95/9/11 94/10/11 366/18/11 368/20/11
f 370/24/11 96/14/11 95/9/11 368/20/11 367/22/11 369/24/11
f 93/13/11 96/14/11 370/24/11 372/19/11
f 92/16/12 89/11/12 355/11/12 361/16/12
f 353/12/13 90/12/13 91/27/13 363/27/13
f 95/9/14 96/14/14 357/14/14 351/9/14
f 359/13/15 93/13/15 94/10/15 349/10/15
f 328/37/16 90/12/16 89/11/16 330/38/16
f 340/39/16 91/27/16 90/12/16 328/37/16 327/37/16 341/40/16
f 330/38/16 89/11/16 92/16/16 337/41/16 336/41/16 329/38/16
f 339/60/10 338/31/10 84/16/10 336/16/10
f 365/10/7 106/10/7 107/9/7 367/9/7 368/9/7 366/10/7
f 97/11/8 98/12/8 102/12/8 101/11/8
f 108/14/9 105/13/9 371/13/9 372/13/9 370/14/9 369/14/9
f 99/27/10 100/16/10 104/16/10 103/27/10
f 106/10/11 105/13/11 101/11/11 102/12/11
f 107/9/11 106/10/11 102/12/11 103/27/11
f 108/14/11 107/9/11 103/27/11 104/16/11
f 105/13/11 108/14/11 104/16/11 101/11/11
f 100/16/12 97/11/12 101/11/12 104/16/12
f 98/12/13 99/27/13 103/27/13 102/12/13
f 107/9/14 108/14/14 369/14/14 367/9/14
f 371/13/15 105/13/15 106/10/15 365/10/15
f 354/37/16 98/12/16 97/11/16 356/38/16
f 364/39/16 99/27/16 98/12/16 354/37/16 353/37/16 363/40/16
f 356/38/16 97/11/16 100/16/16 362/41/16 361/41/16 355/38/16
f 362/41/16 100/16/16 99/27/16 364/39/16
f 237/61/17 238/62/17 202/63/17 199/64/17 223/65/17 227/66/17 263/67/17 265/68/17
f 266/69/17 265/68/17 230/70/17 227/66/17 251/71/17 255/72/17 291/73/17 293/74/17
f 294/75/17 293/74/17 258/76/17 255/72/17 279/77/17 283/78/17 319/79/17 321/80/17
f 348/81/17 322/82/17 321/80/17 286/83/17 283/78/17 307/84/17 311/85/17 346/86/17
f 258/76/17 293/74/17 291/73/17 255/72/17
f 286/83/17 321/80/17 319/79/17 283/78/17
f 314/87/17 348/81/17 346/86/17 311/85/17
f 314/87/17 311/85/17 338/88/17 339/60/17 347/89/17 348/81/17
f 126/90/17 124/91/17 116/15/17 117/17/17 151/92/17 153/93/17
f 154/94/17 153/93/17 120/95/17 117/17/17 139/96/17 143/97/17 179/98/17 181/99/17
f 182/100/17 181/99/17 146/101/17 143/97/17 167/102/17 171/103/17 207/104/17 209/105/17
f 210/106/17 209/105/17 174/107/17 171/103/17 195/108/17 199/64/17 234/109/17 238/62/17
f 120/95/17 153/93/17 151/92/17 117/17/17
f 146/101/17 181/99/17 179/98/17 143/97/17
f 174/107/17 209/105/17 207/104/17 171/103/17
f 202/63/17 238/62/17 234/109/17 199/64/17
f 230/70/17 265/68/17 263/67/17 227/66/17
f 204/110/18 196/111/18 176/112/18 175/113/18 206/114/18 208/115/18 235/116/18 233/117/18
f 231/118/18 232/119/18 261/120/18 262/121/18
f 259/122/18 260/123/18 289/124/18 290/125/18
f 287/126/18 288/127/18 317/128/18 318/129/18
f 343/130/18 344/131/18 315/132/18 316/133/18
f 224/134/18 204/110/18 203/135/18 235/116/18 236/136/18 262/121/18 261/120/18 232/119/18
f 252/137/18 232/119/18 231/118/18 262/121/18 264/138/18 290/125/18 289/124/18 260/123/18
f 280/139/18 260/123/18 259/122/18 290/125/18 292/140/18 318/129/18 317/128/18 288/127/18
f 308/141/18 288/127/18 287/126/18 318/129/18 320/142/18 344/131/18 343/130/18 316/133/18
f 335/55/18 316/133/18 315/132/18 344/131/18 345/143/18 342/56/18
f 233/117/18 235/116/18 203/135/18 204/110/18
f 147/144/18 148/145/18 177/146/18 178/147/18
f 149/148/18 150/149/18 121/150/18 122/151/18
f 205/152/18 206/114/18 175/113/18 176/112/18
f 121/150/18 150/149/18 152/153/18 178/147/18 177/146/18 148/145/18 140/154/18 122/151/18
f 147/144/18 178/147/18 180/155/18 206/114/18 205/152/18 176/112/18 168/156/18 148/145/18
f 122/151/18 113/157/18 123/28/18 125/158/18 150/149/18 149/148/18
f 341/27/19 342/56/19 345/143/19 347/59/19 339/60/19 336/16/19 337/41/19 92/16/19 91/27/19 340/39/19
f 24/14/14 16/14/14 124/91/14 126/25/14
f 116/15/16 124/91/16 16/14/16 20/16/16
f 119/27/10 19/27/10 113/157/10 122/151/10
f 123/28/16 113/157/16 19/27/16 14/9/16
o Plane.002
v -2.642794 3.943973 -2.746163
v -2.642794 3.943973 2.746164
v 2.642794 3.943973 -2.746164
v 2.642794 3.943973 2.746163
v 0.776484 5.163392 -0.806855
v -0.776484 5.163392 -0.806855
v -0.776484 5.163392 0.806855
v 0.776484 5.163392 0.806855
v 2.642794 4.074348 -2.746164
v -2.642794 4.074348 -2.746163
v -2.642794 4.074348 2.746164
v 2.642794 4.074348 2.746163
vn -0.0000 -1.0000 -0.0000
vn -0.0000 1.0000 -0.0000
vn 1.0000 -0.0000 -0.0000
vn -1.0000 -0.0000 -0.0000
vn -0.0000 -0.0000 1.0000
vn -0.0000 -0.0000 -1.0000
vn -0.0000 0.8719 -0.4896
vn -0.5040 0.8637 -0.0000
vn -0.0000 0.8719 0.4896
vn 0.5040 0.8637 -0.0000
vt 0.000000 0.000000
vt 0.000000 1.000000
vt 1.000000 1.000000
vt 1.000000 0.000000
vt 0.025616 0.974384
vt 0.025616 0.025616
vt 0.974384 0.025616
vt 0.974384 0.974384
s 0
usemtl Material.001
f 373/159/20 375/160/20 376/161/20 374/162/20
f 377/163/21 378/164/21 379/165/21 380/166/21
f 376/161/22 375/160/22 381/160/22 384/161/22
f 373/159/23 374/162/23 383/162/23 382/159/23
f 374/162/24 376/161/24 384/161/24 383/162/24
f 375/160/25 373/159/25 382/159/25 381/160/25
f 378/164/26 377/163/26 381/160/26 382/159/26
f 379/165/27 378/164/27 382/159/27 383/162/27
f 380/166/28 379/165/28 383/162/28 384/161/28
f 377/163/29 380/166/29 384/161/29 381/160/29
