# Blender 5.1.0
# www.blender.org
mtllib slide.mtl
o Plane
v 2.532991 0.126790 -1.148083
v 2.532991 0.126790 0.212917
v 2.767911 0.131756 -1.148083
v 2.767911 0.131756 0.212917
v 2.691543 0.321308 -1.148083
v 2.456623 0.316341 -1.148083
v 2.456622 0.316341 0.212917
v 2.691542 0.321308 0.212917
v 2.456622 0.316341 -0.950177
v 2.456623 0.316341 -0.032491
v 2.691542 0.321308 -0.018846
v 2.691542 0.321308 -0.921076
v 2.394543 1.051389 -1.148083
v 2.159623 1.046422 -1.148083
v 2.159623 1.046422 -0.032491
v 2.159623 1.046422 0.212917
v 2.394542 1.051389 0.212917
v 2.394542 1.051389 -0.921076
v 2.159623 1.046422 -0.950177
v 2.394542 1.051389 -0.018846
v 2.334773 1.199741 -1.148083
v 2.099853 1.194774 -1.148083
v 2.099853 1.194774 -0.032491
v 2.099853 1.194774 0.212917
v 2.334773 1.199741 0.212917
v 2.334773 1.199741 -0.921076
v 2.099853 1.194774 -0.950177
v 2.334773 1.199741 -0.018846
v 1.986624 1.873512 -1.148083
v 1.751704 1.868545 -1.148083
v 1.751704 1.868545 -0.032491
v 1.751704 1.868545 0.212917
v 1.986624 1.873512 0.212917
v 1.986624 1.873512 -0.921076
v 1.751704 1.868545 -0.950177
v 1.986624 1.873512 -0.018846
v 1.930030 2.013981 -1.148083
v 1.695110 2.009015 -1.148083
v 1.695110 2.009015 -0.032491
v 1.695110 2.009015 0.212917
v 1.930030 2.013981 0.212917
v 1.930030 2.013981 -0.921076
v 1.695110 2.009015 -0.950177
v 1.930030 2.013981 -0.018846
v 1.676476 2.643315 -1.148083
v 1.441556 2.638349 -1.148083
v 1.441556 2.638349 -0.032491
v 1.441556 2.638349 0.212917
v 1.676476 2.643315 0.212917
v 1.676476 2.643315 -0.921076
v 1.441556 2.638349 -0.950177
v 1.676476 2.643315 -0.018846
v 1.623434 2.836782 -1.148083
v 1.388515 2.836782 -1.148083
v 1.388515 2.836782 -0.032491
v 1.388515 2.836782 0.212917
v 1.623435 2.836782 0.212917
v 1.623435 2.836782 -0.921076
v 1.388515 2.836782 -0.950177
v 1.623435 2.836782 -0.018846
v 1.623434 2.972544 -1.148083
v 1.388515 2.972544 -1.148083
v 1.388515 2.972544 0.014608
v 1.388515 2.972544 0.212917
v 1.623435 2.972544 0.212917
v 1.623435 2.972544 -0.921076
v 1.388515 2.972544 -0.968013
v 1.623435 2.972544 -0.018846
v 0.575907 2.836782 -0.032491
v 0.575907 2.836782 0.212917
v 0.575907 2.836782 -1.148083
v 0.575907 2.836782 -0.950177
v 0.575907 2.972544 0.014608
v 0.575907 2.972544 0.212917
v 0.575907 2.972544 -1.148083
v 0.575907 2.972544 -0.968013
v 1.623435 2.972544 -0.968013
v 1.623435 2.972544 0.014608
v 0.575907 3.494430 -1.148083
v 0.575907 3.494430 0.014608
v 0.575907 3.494430 0.212917
v 0.575907 3.494430 -0.968013
v 0.025774 2.537059 -0.032491
v 0.025774 2.537059 0.212917
v 0.025773 2.537059 -1.148083
v 0.025773 2.537059 -0.950177
v -0.030757 2.660491 0.014608
v -0.030757 2.660491 0.212917
v -0.030757 2.660491 -1.148083
v -0.030757 2.660491 -0.968013
v -0.248067 3.134982 0.014608
v -0.248067 3.134982 0.212917
v -0.248067 3.134982 -1.148083
v -0.248067 3.134982 -0.968013
v -0.503227 1.947175 -0.032491
v -0.503227 1.947175 0.212917
v -0.503227 1.947175 -1.148083
v -0.503227 1.947175 -0.950177
v -0.596972 2.045375 0.014608
v -0.596972 2.045375 0.212917
v -0.596972 2.045375 -1.148083
v -0.596972 2.045375 -0.968013
v -0.957340 2.422866 0.014609
v -0.957340 2.422866 0.212917
v -0.957340 2.422866 -1.148083
v -0.957340 2.422866 -0.968012
v -1.172572 1.308192 -0.032491
v -1.172572 1.308192 0.212917
v -1.172572 1.308192 -1.148083
v -1.172572 1.308192 -0.950177
v -1.266317 1.406392 0.014609
v -1.266317 1.406392 0.212917
v -1.266317 1.406392 -1.148083
v -1.266317 1.406392 -0.968012
v -1.626685 1.783883 0.014609
v -1.626685 1.783883 0.212917
v -1.626685 1.783883 -1.148083
v -1.626685 1.783883 -0.968012
v -1.877337 0.714908 -0.032491
v -1.877337 0.714908 0.212917
v -1.877337 0.714908 -1.148083
v -1.877337 0.714908 -0.950177
v -1.956908 0.824907 0.014609
v -1.956908 0.824907 0.212917
v -1.956908 0.824907 -1.148083
v -1.956908 0.824907 -0.968012
v -2.262789 1.247756 0.014609
v -2.262789 1.247756 0.212917
v -2.262789 1.247756 -1.148083
v -2.262789 1.247756 -0.968012
v -2.824362 0.063519 -0.032491
v -2.824362 0.063519 0.212917
v -2.824362 0.063519 -1.148083
v -2.824362 0.063519 -0.950177
v -2.847067 0.197370 0.014609
v -2.847067 0.197370 0.212917
v -2.847067 0.197370 -1.148083
v -2.847067 0.197370 -0.968012
v -2.934349 0.711905 0.014609
v -2.934349 0.711905 0.212917
v -2.934349 0.711905 -1.148083
v -2.934349 0.711905 -0.968012
v -3.607439 0.065318 -0.032491
v -3.607439 0.065318 0.212917
v -3.607439 0.065318 -1.148082
v -3.607439 0.065318 -0.950177
v -3.608234 0.201078 0.014609
v -3.608234 0.201078 0.212917
v -3.608234 0.201078 -1.148082
v -3.608234 0.201078 -0.968012
v -3.608485 0.243874 0.014609
v -3.132264 0.715135 0.014609
v -3.551841 0.486718 0.014609
v -3.375688 0.661037 0.014609
v -3.132264 0.715135 0.212917
v -3.608485 0.243874 0.212917
v -3.375688 0.661037 0.212917
v -3.551841 0.486718 0.212917
v -3.608485 0.243874 -1.148083
v -3.132264 0.715135 -1.148083
v -3.551841 0.486718 -1.148083
v -3.375688 0.661037 -1.148083
v -3.132264 0.715135 -0.968012
v -3.608485 0.243874 -0.968012
v -3.375688 0.661037 -0.968012
v -3.551841 0.486718 -0.968012
v 1.147310 3.494430 -1.148083
v 1.623434 3.018305 -1.148083
v 1.389598 3.436710 -1.148083
v 1.565715 3.260593 -1.148083
v 1.623435 3.018305 0.212917
v 1.147310 3.494430 0.212917
v 1.565715 3.260593 0.212917
v 1.389598 3.436710 0.212917
v 1.623435 3.018305 -0.968013
v 1.147310 3.494430 -0.968013
v 1.565715 3.260593 -0.968013
v 1.389597 3.436710 -0.968013
v 1.147310 3.494430 0.014608
v 1.623435 3.018305 0.014608
v 1.389598 3.436710 0.014608
v 1.565715 3.260593 0.014608
vn 0.0211 -0.9998 -0.0000
vn 0.9263 0.3768 -0.0000
vn -0.0000 -0.0000 -1.0000
vn 0.9275 0.3737 -0.0000
vn -0.9275 -0.3737 -0.0000
vn -0.0000 -0.0000 1.0000
vn -0.0211 0.9998 -0.0000
vn -0.1218 -0.0495 0.9913
vn 0.0575 0.0234 -0.9981
vn -0.9263 -0.3768 -0.0000
vn -0.8884 -0.4591 -0.0000
vn 0.0573 0.0296 -0.9979
vn -0.1214 -0.0627 0.9906
vn 0.8884 0.4591 -0.0000
vn 0.9644 0.2644 -0.0000
vn -0.1225 -0.0332 0.9919
vn 0.0575 0.0232 -0.9981
vn -0.1218 -0.0491 0.9913
vn -0.9661 -0.2582 -0.0000
vn 0.0578 0.0157 -0.9982
vn -0.0000 -1.0000 -0.0000
vn 1.0000 -0.0000 -0.0000
vn -0.0000 1.0000 -0.0000
vn 0.4784 -0.8781 -0.0000
vn -0.4574 0.8893 -0.0000
vn -0.7085 0.7057 -0.0000
vn 0.7445 -0.6676 -0.0000
vn -0.3998 0.9166 -0.0000
vn 0.6905 -0.7233 -0.0000
vn -0.6905 0.7233 -0.0000
vn -0.7357 0.6773 -0.0000
vn 0.6440 -0.7650 -0.0000
vn -0.6445 0.7646 -0.0000
vn 0.5667 -0.8239 -0.0000
vn -0.6237 0.7817 -0.0000
vn -0.6441 0.7649 -0.0000
vn -0.0023 -1.0000 -0.0000
vn -0.5762 0.8173 -0.0000
vn -1.0000 -0.0059 -0.0000
vn 0.0049 1.0000 -0.0000
vn -0.9739 0.2272 -0.0000
vn -0.7034 0.7108 -0.0000
vn -0.2169 0.9762 -0.0000
vn 0.0163 0.9999 -0.0000
vn 0.9728 0.2317 -0.0000
vn 0.7071 0.7071 -0.0000
vn 0.2317 0.9728 -0.0000
vt 0.000000 0.000000
vt 0.000000 1.000000
vt 1.000000 1.000000
vt 1.000000 0.000000
vt 0.166795 1.000000
vt 0.829711 1.000000
vt 0.819685 0.000000
vt 0.145412 0.000000
vt 0.819685 1.000000
vt 0.145412 1.000000
vt 0.819685 0.000000
vt 0.000000 0.981633
vt 0.145412 0.981633
vt 0.000000 0.776773
vt 0.145412 0.776773
vt 0.000000 0.545478
vt 0.145412 0.545478
vt 0.819685 0.545478
vt 1.000000 0.545478
vt 1.000000 0.776772
vt 0.819685 0.776773
vt 1.000000 0.981633
vt 0.819685 0.981633
vt 0.819685 1.000000
s 0
usemtl Material
f 1/1/1 3/2/1 4/3/1 2/4/1
f 12/5/2 5/2/2 13/2/2 18/5/2
f 3/2/3 1/1/3 6/1/3 5/2/3
f 4/3/4 3/2/4 5/2/4 12/5/4 11/6/4 8/3/4
f 1/1/5 2/4/5 7/4/5 10/7/5 9/8/5 6/1/5
f 2/4/6 4/3/6 8/3/6 7/4/6
f 12/5/7 9/8/7 10/7/7 11/6/7
f 16/4/6 17/3/6 25/3/6 24/4/6
f 9/8/8 12/5/8 18/5/8 19/8/8
f 11/6/9 10/7/9 15/7/9 20/6/9
f 10/7/10 7/4/10 16/4/10 15/7/10
f 8/3/2 11/6/2 20/6/2 17/3/2
f 6/1/10 9/8/10 19/8/10 14/1/10
f 7/4/6 8/3/6 17/3/6 16/4/6
f 5/2/3 6/1/3 14/1/3 13/2/3
f 22/1/11 27/8/11 35/8/11 30/1/11
f 28/6/12 23/7/12 31/7/12 36/6/12
f 14/1/5 19/8/5 15/7/5 16/4/5 24/4/5 23/7/5 27/8/5 22/1/5
f 13/2/3 14/1/3 22/1/3 21/2/3
f 20/6/1 15/7/1 19/8/1 18/5/1
f 30/1/5 35/8/5 43/8/5 38/1/5
f 36/6/1 31/7/1 35/8/1 34/5/1
f 24/4/6 25/3/6 33/3/6 32/4/6
f 21/2/3 22/1/3 30/1/3 29/2/3
f 27/8/13 26/5/13 34/5/13 35/8/13
f 25/3/14 28/6/14 36/6/14 33/3/14
f 26/5/14 21/2/14 29/2/14 34/5/14
f 23/7/11 24/4/11 32/4/11 31/7/11
f 28/6/7 26/5/7 27/8/7 23/7/7
f 26/5/4 28/6/4 25/3/4 17/3/4 20/6/4 18/5/4 13/2/4 21/2/4
f 39/7/5 40/4/5 48/4/5 47/7/5
f 42/5/4 37/2/4 45/2/4 50/5/4
f 32/4/6 33/3/6 41/3/6 40/4/6
f 29/2/3 30/1/3 38/1/3 37/2/3
f 39/7/5 43/8/5 35/8/5 31/7/5
f 33/3/4 36/6/4 44/6/4 41/3/4
f 34/5/4 29/2/4 37/2/4 42/5/4
f 31/7/5 32/4/5 40/4/5 39/7/5
f 49/3/15 52/6/15 60/6/15 57/3/15
f 51/8/16 50/5/16 58/5/16 59/8/16
f 44/6/17 39/7/17 47/7/17 52/6/17
f 38/1/5 43/8/5 51/8/5 46/1/5
f 40/4/6 41/3/6 49/3/6 48/4/6
f 37/2/3 38/1/3 46/1/3 45/2/3
f 43/8/18 42/5/18 50/5/18 51/8/18
f 41/3/4 44/6/4 52/6/4 49/3/4
f 50/5/15 45/2/15 53/2/15 58/5/15
f 47/7/19 48/4/19 56/4/19 55/7/19
f 52/6/20 47/7/20 55/7/20 60/6/20
f 46/1/19 51/8/19 59/8/19 54/1/19
f 48/4/6 49/3/6 57/3/6 56/4/6
f 45/2/3 46/1/3 54/1/3 53/2/3
f 44/6/4 36/6/4 34/5/4 42/5/4
f 44/6/7 42/5/7 43/8/7 39/7/7
f 60/6/21 55/7/21 59/8/21 58/5/21
f 53/2/3 54/1/3 62/1/3 61/2/3
f 60/6/22 58/5/22 66/5/22 78/9/22 68/6/22
f 57/3/22 60/6/22 68/6/22 65/3/22
f 58/5/22 53/2/22 61/2/22 77/10/22 66/5/22
f 56/4/6 64/4/6 74/4/6 70/4/6
f 63/7/23 67/8/23 76/8/23 73/7/23
f 62/1/3 54/1/3 71/1/3 75/1/3
f 56/4/6 57/3/6 65/3/6 64/4/6
f 79/1/3 75/1/3 89/1/3 93/1/3
f 72/8/24 69/7/24 83/7/24 86/8/24
f 76/8/6 82/8/6 94/8/6 90/8/6
f 73/7/25 76/8/25 90/8/25 87/7/25
f 55/7/21 56/4/21 70/4/21 69/7/21
f 59/8/21 55/7/21 69/7/21 72/8/21
f 54/1/21 59/8/21 72/8/21 71/1/21
f 77/10/23 67/8/23 63/7/23 78/9/23 66/5/23
f 70/4/6 74/4/6 88/4/6 84/4/6
f 94/8/26 93/1/26 105/1/26 106/8/26
f 91/7/3 87/7/3 99/7/3 103/7/3
f 83/7/27 84/4/27 96/4/27 95/7/27
f 92/4/26 91/7/26 103/7/26 104/4/26
f 88/4/6 92/4/6 104/4/6 100/4/6
f 75/1/3 71/1/3 85/1/3 89/1/3
f 74/4/6 81/4/6 92/4/6 88/4/6
f 81/4/28 80/7/28 91/7/28 92/4/28
f 69/7/24 70/4/24 84/4/24 83/7/24
f 80/7/3 73/7/3 87/7/3 91/7/3
f 82/8/28 79/1/28 93/1/28 94/8/28
f 71/1/24 72/8/24 86/8/24 85/1/24
f 96/4/6 100/4/6 112/4/6 108/4/6
f 97/1/29 98/8/29 110/8/29 109/1/29
f 106/8/30 105/1/30 117/1/30 118/8/30
f 103/7/3 99/7/3 111/7/3 115/7/3
f 95/7/29 96/4/29 108/4/29 107/7/29
f 85/1/27 86/8/27 98/8/27 97/1/27
f 84/4/6 88/4/6 100/4/6 96/4/6
f 93/1/3 89/1/3 101/1/3 105/1/3
f 87/7/31 90/8/31 102/8/31 99/7/31
f 90/8/6 94/8/6 106/8/6 102/8/6
f 86/8/27 83/7/27 95/7/27 98/8/27
f 89/1/3 85/1/3 97/1/3 101/1/3
f 109/1/32 110/8/32 122/8/32 121/1/32
f 118/8/33 117/1/33 129/1/33 130/8/33
f 115/7/3 111/7/3 123/7/3 127/7/3
f 107/7/32 108/4/32 120/4/32 119/7/32
f 116/4/33 115/7/33 127/7/33 128/4/33
f 105/1/3 101/1/3 113/1/3 117/1/3
f 99/7/30 102/8/30 114/8/30 111/7/30
f 102/8/6 106/8/6 118/8/6 114/8/6
f 98/8/29 95/7/29 107/7/29 110/8/29
f 101/1/3 97/1/3 109/1/3 113/1/3
f 100/4/6 104/4/6 116/4/6 112/4/6
f 104/4/30 103/7/30 115/7/30 116/4/30
f 121/1/34 122/8/34 134/8/34 133/1/34
f 130/8/35 129/1/35 141/1/35 142/8/35
f 127/7/3 123/7/3 135/7/3 139/7/3
f 119/7/34 120/4/34 132/4/34 131/7/34
f 128/4/35 127/7/35 139/7/35 140/4/35
f 108/4/6 112/4/6 124/4/6 120/4/6
f 117/1/3 113/1/3 125/1/3 129/1/3
f 111/7/36 114/8/36 126/8/36 123/7/36
f 114/8/6 118/8/6 130/8/6 126/8/6
f 110/8/32 107/7/32 119/7/32 122/8/32
f 113/1/3 109/1/3 121/1/3 125/1/3
f 112/4/6 116/4/6 128/4/6 124/4/6
f 131/7/37 132/4/37 144/4/37 143/7/37
f 120/4/6 124/4/6 136/4/6 132/4/6
f 129/1/3 125/1/3 137/1/3 141/1/3
f 123/7/38 126/8/38 138/8/38 135/7/38
f 126/8/6 130/8/6 142/8/6 138/8/6
f 122/8/34 119/7/34 131/7/34 134/8/34
f 125/1/3 121/1/3 133/1/3 137/1/3
f 124/4/6 128/4/6 140/4/6 136/4/6
f 143/7/39 144/4/39 148/4/39 147/7/39
f 146/8/39 143/7/39 147/7/39 150/8/39
f 145/1/39 146/8/39 150/8/39 149/1/39
f 133/1/37 134/8/37 146/8/37 145/1/37
f 132/4/6 136/4/6 148/4/6 144/4/6
f 135/7/40 138/8/40 150/8/40 147/7/40
f 134/8/37 131/7/37 143/7/37 146/8/37
f 137/1/3 133/1/3 145/1/3 149/1/3
f 151/11/41 156/4/41 158/4/41 153/11/41
f 153/11/42 158/4/42 157/4/42 154/11/42
f 154/11/43 157/4/43 155/4/43 152/11/43
f 159/1/41 164/8/41 166/8/41 161/1/41
f 161/1/42 166/8/42 165/8/42 162/1/42
f 162/1/43 165/8/43 163/8/43 160/1/43
f 140/4/44 139/7/44 152/11/44 155/4/44
f 147/7/39 148/4/39 156/4/39 151/11/39
f 139/7/3 135/7/3 147/7/3 151/11/3 153/11/3 154/11/3 152/11/3
f 136/4/6 140/4/6 155/4/6 157/4/6 158/4/6 156/4/6 148/4/6
f 149/1/39 150/8/39 164/8/39 159/1/39
f 141/1/3 137/1/3 149/1/3 159/1/3 161/1/3 162/1/3 160/1/3
f 142/8/44 141/1/44 160/1/44 163/8/44
f 138/8/6 142/8/6 163/8/6 165/8/6 166/8/6 164/8/6 150/8/6
f 175/10/45 168/2/45 170/12/45 177/13/45
f 177/13/46 170/12/46 169/14/46 178/15/46
f 178/15/47 169/14/47 167/16/47 176/17/47
f 179/18/47 172/19/47 174/20/47 181/21/47
f 181/21/46 174/20/46 173/22/46 182/23/46
f 182/23/45 173/22/45 171/3/45 180/24/45
f 77/10/22 61/2/22 168/2/22 175/10/22
f 176/17/23 167/16/23 79/1/23 82/8/23
f 61/2/3 75/1/3 79/1/3 167/16/3 169/14/3 170/12/3 168/2/3
f 171/3/6 173/22/6 174/20/6 172/19/6 81/4/6 74/4/6 65/3/6
f 179/18/23 80/7/23 81/4/23 172/19/23
f 78/9/22 180/24/22 171/3/22 65/3/22
f 77/10/6 175/10/6 177/13/6 178/15/6 176/17/6 82/8/6 76/8/6
f 78/9/3 73/7/3 80/7/3 179/18/3 181/21/3 182/23/3 180/24/3
